<svg height="479pt" viewBox="-15 0 479 479.72644" width="479pt" xmlns="http://www.w3.org/2000/svg"><path d="m440.363281 279.726562h-24v-176c0-3.355468-2.097656-6.355468-5.246093-7.507812-3.152344-1.15625-6.6875-.21875-8.859376 2.339844l-121.894531 143.761718v-26.59375c-.042969-.328124-.109375-.648437-.191406-.96875 0-.253906.054687-.511718 0-.800781l-14.265625-64.152343c-1.820312-8.226563-9.113281-14.085938-17.542969-14.085938-8.429687 0-15.722656 5.859375-17.542969 14.085938l-14.265624 64.1875c-.054688.253906 0 .511718 0 .796874-.082032.308594-.144532.621094-.191407.9375v80h-16v-158.113281l23.199219-46.3125c1.222656-2.445312 1.109375-5.351562-.304688-7.695312l-48-80c-1.550781-2.257813-4.113281-3.605469-6.855468-3.605469-2.738282 0-5.304688 1.347656-6.855469 3.605469l-48 80c-1.410156 2.34375-1.523437 5.25-.304687 7.695312l23.121093 46.3125v142.113281h-32.585937v-68.800781c1.320312-1.402343 2.566406-2.855469 3.738281-4.359375.289063-.378906.566406-.753906.839844-1.128906 9.511719-12.863281 13.328125-29.070312 10.558593-44.828125-2.773437-15.757813-11.886718-29.6875-25.214843-38.539063l-25.488281-16.992187c-3.171876-2.109375-7.390626-1.691406-10.085938 1-6.695312 6.785156-12.234375 14.621094-16.394531 23.199219-.09375.167968-.222657.3125-.3125.488281-.199219.410156-.351563.839844-.542969 1.25-.800781 1.773437-1.601562 3.542969-2.335938 5.367187-.582031 1.488282-1.0625 3.007813-1.601562 4.527344-.796875 2.351563-1.453125 4.71875-2.03125 7.128906-.4375 1.847657-.800781 3.695313-1.167969 5.597657-.222656 1.347656-.4375 2.671875-.605469 4-.355468 2.824219-.601562 5.648437-.679687 8.488281v2.183594c0 2.875.140625 5.738281.414063 8.601562.089843.9375.191406 1.855469.3125 2.792969.402343 3.335937 1 6.644531 1.792968 9.910156l4.796875 19.144531v70.96875h-31.40625c-4.417969 0-8 3.582032-8 8v184c0 4.417969 3.582031 8 8 8h432c4.417969 0 8-3.582031 8-8v-184c0-4.417968-3.582031-8-8-8zm-40-154.191406v26.191406h-16v16h16v16h-16v16h16v16h-16v16h16v16h-16v16h16v16h-32v-48c.003907-3.363281-2.097656-6.371093-5.257812-7.523437-3.164063-1.15625-6.707031-.207031-8.871094 2.371094l-44.640625 53.152343h-21.925781c-1.953125 0-3.839844.714844-5.304688 2.007813l-2 1.777344v-16.457031zm-69.871093 154.191406 21.871093-26.039062v26.039062zm-90.816407-96h17.375l5.335938 24h-28.046875zm10.617188-30.457031 3.199219 14.457031h-10.265626l3.199219-14.457031c.296875-.8125 1.070313-1.351562 1.933594-1.351562s1.636719.539062 1.933594 1.351562zm-17.929688 70.457031h32v72h-32zm-80-80h32v16h-32zm12-48c0-2.210937 1.789063-4 4-4 2.210938 0 4 1.789063 4 4 0 2.210938-1.789062 4-4 4-2.210937 0-4-1.789062-4-4zm4-72.457031 38.878907 64.800781-19.824219 39.65625h-11.054688v-13.695312c8.679688-3.789062 13.511719-13.144531 11.578125-22.417969-1.933594-9.269531-10.105468-15.914062-19.578125-15.914062-9.472656 0-17.644531 6.644531-19.578125 15.914062-1.933594 9.273438 2.898438 18.628907 11.578125 22.417969v13.695312h-11.054687l-19.824219-39.648437zm-16 152.457031h32v120h-2.183593l-15.816407-13.992187c-1.464843-1.292969-3.351562-2.007813-5.304687-2.007813h-8.695313zm-103.199219-17.425781c.078126-.550781.191407-1.09375.277344-1.597656.425782-2.601563.996094-5.175781 1.707032-7.710937l.125-.457032 8.9375 10.207032c5.039062 5.726562 12.300781 9 19.929687 8.984374 2.765625.011719 5.417969 1.109376 7.382813 3.054688l13.824218 13.832031c-.039062.136719-.0625.273438-.113281.402344-.863281 2.375-1.933594 4.671875-3.199219 6.863281-.175781.304688-.296875.640625-.480468.933594-1.476563 2.476562-3.207032 4.792969-5.160157 6.914062h-38.398437l-3.511719-14.03125c-.730469-2.945312-1.265625-5.933593-1.601563-8.945312-.078124-.703125-.070312-1.414062-.136718-2.121094-.199219-2.34375-.34375-4.6875-.3125-7.039062 0-.6875.082031-1.382813.105468-2.070313.128907-2.417969.3125-4.824219.625-7.21875zm6.613282 57.425781h32v16h-32zm9.273437-93.535156 19.777344 13.183594c9.765625 6.519531 16.390625 16.800781 18.296875 28.390625l-4.296875-4.296875c-4.96875-4.9375-11.683594-7.71875-18.6875-7.742188-3.011719 0-5.875-1.296874-7.855469-3.558593l-14.027344-16c1.980469-3.511719 4.25-6.851563 6.792969-9.976563zm-9.273437 125.535156h32v32h-32zm376.585937 216h-416v-168h141.664063l15.816406 13.992188c1.464844 1.292969 3.347656 2.007812 5.304688 2.007812h90.398437c1.953125 0 3.839844-.714843 5.304687-2.007812l15.847657-13.992188h141.664062zm0 0"/><path d="m80.363281 431.726562h16v16h-16zm0 0"/><path d="m112.363281 431.726562h16v16h-16zm0 0"/><path d="m144.363281 431.726562h16v16h-16zm0 0"/><path d="m48.363281 399.726562h-16v40c0 4.417969 3.582031 8 8 8h24v-16h-16zm0 0"/></svg>